<svg xmlns="http://www.w3.org/2000/svg" width="129" height="24" viewBox="0 0 129 24"><g fill="#000" fill-rule="nonzero"><path d="M32.24 23.5V.46h13.87v3.85H36.09v5.74h8.1v3.86h-8.1v9.59zM45.07 23.5 52.33.46h5.65l7.27 23.04h-3.98L54.7 2.83h.85l-6.5 20.67h-3.97Zm4.05-5v-3.6h12.1v3.6h-12.1ZM66.13 23.5V.46h9.13c1.56 0 2.84.31 3.84.94 1 .62 1.74 1.42 2.23 2.4.48.96.72 1.96.72 3a5.6 5.6 0 0 1-.9 3.23 4.42 4.42 0 0 1-2.46 1.78v-.79a5.38 5.38 0 0 1 3.3 2.06 5.94 5.94 0 0 1 1.14 3.57 7.8 7.8 0 0 1-.79 3.59 5.62 5.62 0 0 1-2.33 2.4c-1.03.57-2.3.86-3.82.86H66.13Zm3.9-3.64h5.68c.68 0 1.28-.13 1.8-.4a3.08 3.08 0 0 0 1.72-2.92c0-.62-.14-1.18-.4-1.67-.27-.49-.66-.88-1.17-1.17a3.68 3.68 0 0 0-1.84-.43h-5.79v6.6Zm0-10.2h5.18c.55 0 1.05-.1 1.49-.32.44-.2.79-.52 1.05-.94.25-.41.38-.93.38-1.55 0-.8-.26-1.46-.77-1.99a2.86 2.86 0 0 0-2.15-.8h-5.18v5.6ZM84.32 23.5V.46h9.52c.22 0 .51 0 .87.02.35.02.68.05.98.1 1.33.21 2.43.66 3.3 1.34a6.18 6.18 0 0 1 1.93 2.58c.42 1.04.63 2.2.63 3.46a8.2 8.2 0 0 1-1.42 4.85c-.95 1.34-2.4 2.18-4.37 2.5l-1.64.15h-5.95v8.04h-3.85Zm13.23 0-4.54-9.38 3.92-.86 5 10.24h-4.38Zm-9.38-11.65h5.51c.22 0 .46-.01.72-.04.27-.02.51-.06.74-.12a2.96 2.96 0 0 0 1.5-.85c.37-.4.63-.86.79-1.37a5.24 5.24 0 0 0 0-3.02 3.54 3.54 0 0 0-.78-1.38c-.37-.4-.87-.68-1.5-.84-.24-.07-.48-.1-.75-.13l-.72-.03h-5.51v7.78ZM103.77 23.5V.46h3.85V23.5zM110.42 23.5V.46h3.85v10.69l9.2-10.69h4.74l-9.91 11.3 10.59 11.74h-4.9l-9.72-10.75V23.5zM22.28.5a5 5 0 0 1 0 10h-17a5 5 0 1 1 0-10h17Zm0 3h-17a2 2 0 1 0 0 4h17a2 2 0 1 0 0-4Zm-.5 9a5.5 5.5 0 0 1 0 11h-16a5.5 5.5 0 0 1 0-11h16Zm0 3h-16a2.5 2.5 0 1 0 0 5h16a2.5 2.5 0 1 0 0-5Z"></path></g></svg>